# xmcd
#
# Track frame offsets: 
#        150
#        8650
#        28958
#        52810
#        75617
#        100075
#        117368
#        138312
#        160848
#        181384
#        203868
#
# Disc length: 2955 seconds
#
# Revision: 1
# Processed by: cddbd v1.5.2PL0 Copyright (c) Steve Scherf et al.
# Submitted via: ExactAudioCopy v0.99pb5
#
DISCID=860b890b
DTITLE=N'Klabe - A Punto De Estallar
DYEAR=2006
DGENRE=Salsa
TTITLE0=Intro
TTITLE1=Zoom Zoom
TTITLE2=A Punto De Estallar
TTITLE3=Ella Volvio [Salsa Version]
TTITLE4=Olvidame
TTITLE5=Bailala Como Quieras
TTITLE6=Eso Dicen
TTITLE7=Historia Del Primer Amor
TTITLE8=Ponte N'Klabe
TTITLE9=Una Senal
TTITLE10=Ella Volvio [Reggaeton Remix Version]
EXTD=YEAR: 2006
EXTT0=
EXTT1=
EXTT2=
EXTT3=
EXTT4=
EXTT5=
EXTT6=
EXTT7=
EXTT8=
EXTT9=
EXTT10=
PLAYORDER=
